# xmcd CD database file generated by OrangeCD 6.0
#
# Track frame offsets:
#	182
#	14707
#	33742
#	43795
#
# Disc length: 863 seconds
#
# Revision: 1
# Processed by: cddbd v1.5.2PL0 Copyright (c) Steve Scherf et al.
# Submitted via: OrangeCD 6.0
#
DISCID=33035d04
DTITLE=Steve Earle and The V-Roys - Johnny Too Bad (single)
DYEAR=1996
DGENRE=Alt-country
TTITLE0=Johnny Too Bad(Sunshine mix)
TTITLE1=Johnny Too Bad(Jamaican HillBilly Mix)
TTITLE2=Straight Highway
TTITLE3=Ellis Unit One
EXTD=
EXTT0=
EXTT1=
EXTT2=
EXTT3=
PLAYORDER=
